<?xml version="1.0" encoding="UTF-8" standalone="no"?>
<svg
   xmlns:dc="http://purl.org/dc/elements/1.1/"
   xmlns:cc="http://creativecommons.org/ns#"
   xmlns:rdf="http://www.w3.org/1999/02/22-rdf-syntax-ns#"
   xmlns:svg="http://www.w3.org/2000/svg"
   xmlns="http://www.w3.org/2000/svg"
   xmlns:sodipodi="http://sodipodi.sourceforge.net/DTD/sodipodi-0.dtd"
   xmlns:inkscape="http://www.inkscape.org/namespaces/inkscape"
   viewBox="0 0 256 256"
   version="1.1"
   id="svg14"
   sodipodi:docname="plane_w.svg"
   inkscape:version="0.92.5 (2060ec1f9f, 2020-04-08)">
  <metadata
     id="metadata20">
    <rdf:RDF>
      <cc:Work
         rdf:about="">
        <dc:format>image/svg+xml</dc:format>
        <dc:type
           rdf:resource="http://purl.org/dc/dcmitype/StillImage" />
        <dc:title></dc:title>
      </cc:Work>
    </rdf:RDF>
  </metadata>
  <defs
     id="defs18" />
  <sodipodi:namedview
     pagecolor="#ffffff"
     bordercolor="#666666"
     borderopacity="1"
     objecttolerance="10"
     gridtolerance="10"
     guidetolerance="10"
     inkscape:pageopacity="0"
     inkscape:pageshadow="2"
     inkscape:window-width="1366"
     inkscape:window-height="697"
     id="namedview16"
     showgrid="false"
     inkscape:zoom="2.6074563"
     inkscape:cx="109.27561"
     inkscape:cy="115.27762"
     inkscape:window-x="0"
     inkscape:window-y="0"
     inkscape:window-maximized="1"
     inkscape:current-layer="svg14" />
  <rect
     fill="none"
     height="256"
     width="256"
     id="rect2" />
  <path
     d="M88,134.9,224.1,36.6h0a7.8,7.8,0,0,0-6.2-.2L33.3,108.9c-7.4,2.9-6.4,13.7,1.4,15.3Z"
     opacity="0.2"
     id="path4"
     style="fill:#b3b3b3" />
  <path
     d="M132.9,174.4l-31.2,31.2A8,8,0,0,1,88,200V134.9Z"
     opacity="0.2"
     id="path6"
     style="fill:#999999" />
  <path
     d="M88,134.9,177.9,214a8,8,0,0,0,13.1-4.2L228.6,45.6a8,8,0,0,0-10.7-9.2L33.3,108.9c-7.4,2.9-6.4,13.7,1.4,15.3Z"
     fill="none"
     stroke="#000"
     stroke-linecap="round"
     stroke-linejoin="round"
     stroke-width="16"
     id="path8"
     style="stroke:#ffffff" />
  <line
     fill="none"
     stroke="#000"
     stroke-linecap="round"
     stroke-linejoin="round"
     stroke-width="16"
     x1="88"
     x2="224.1"
     y1="134.9"
     y2="36.6"
     id="line10"
     style="stroke:#ffffff" />
  <path
     d="M132.9,174.4l-31.2,31.2A8,8,0,0,1,88,200V134.9"
     fill="none"
     stroke="#000"
     stroke-linecap="round"
     stroke-linejoin="round"
     stroke-width="16"
     id="path12"
     style="stroke:#ffffff" />
</svg>
